<svg width="429" height="55" viewBox="0 0 429 55" fill="none" xmlns="http://www.w3.org/2000/svg">
<g clip-path="url(#clip0_114_834)">
<path d="M0 37.626C0 37.626 10.4917 31.1924 14.3518 29.7077C18.212 28.223 20.4885 27.4312 24.2497 24.5608C28.1098 21.5915 32.9598 15.5538 34.6424 14.2671C36.325 13.0794 36.325 13.4753 39.4923 12.3865C43.4515 11.0008 48.8953 2.68664 50.9738 5.06212C52.1615 6.54679 55.3288 15.6528 56.7145 11.8916C57.3084 10.308 58.5951 7.73453 59.8818 8.72431C61.2675 9.81307 60.9706 9.61512 62.3563 14.663C63.742 19.7109 64.3359 19.414 66.1175 21.1956C67.9981 22.8782 66.6124 22.0864 68.5919 26.0455C70.6705 30.0046 74.7286 34.4587 76.2133 36.8341C77.203 38.6157 77.9949 40.0014 78.2918 40.4963C73.9368 39.1106 65.7216 36.7352 56.2196 35.1515C55.3288 33.4689 55.2299 30.6975 55.0319 29.7077C54.2401 25.7486 49.0932 26.9363 50.8748 23.67C51.4687 22.3833 59.6839 14.861 56.9125 15.2569C55.2299 15.5538 52.2605 16.1477 51.6666 16.4446C43.2535 20.0078 53.6462 8.13044 45.1341 11.7926C44.3423 12.1886 42.0658 11.7926 40.6801 13.2773C39.3933 14.762 37.6117 12.9804 36.0281 14.762C34.4444 16.5436 35.4342 17.3354 32.8608 19.414C30.3863 21.4925 30.4853 21.5915 28.3078 23.0762C26.2292 24.5608 25.9323 26.6394 24.0517 27.3322C22.2701 28.0251 18.8059 29.7077 17.6181 29.7077C16.3314 29.7077 11.3825 32.6771 10.7886 33.2709C10.2937 33.9638 0 37.626 0 37.626Z" fill="white"/>
<path d="M3.46387 39.9024C3.46387 39.9024 24.4473 34.2606 43.649 35.6463C62.7518 37.032 81.1618 43.6635 81.1618 43.6635L74.0354 45.5441C58.5947 39.7044 42.6593 37.9228 42.6593 37.9228C42.6593 37.9228 57.9019 42.7727 66.711 47.5237L54.7346 50.592C54.7346 50.592 42.3623 43.1686 34.0481 40.7932C25.833 38.4177 3.46387 39.9024 3.46387 39.9024Z" fill="white"/>
<path d="M104.352 43.0659L108.785 40.3918C111.905 46.1387 115.505 49.0121 119.587 49.0121C121.346 49.0121 123 48.6016 124.548 47.7806C126.096 46.9596 127.269 45.8689 128.066 44.5084C128.864 43.148 129.262 41.6937 129.262 40.1457C129.262 38.4099 128.676 36.6976 127.503 35.0087C125.861 32.6866 122.871 30.3175 118.531 27.9014C114.168 24.6175 111.471 22.2367 110.439 20.759C108.586 18.3195 107.659 15.6572 107.659 12.7721C107.659 10.4968 108.199 8.43263 109.278 6.57957C110.357 4.72651 111.887 3.25461 113.869 2.16385C115.851 1.07309 118.003 0.527735 120.325 0.527773C122.765 0.527773 125.052 1.1435 127.186 2.37496C129.321 3.60643 131.585 5.85235 133.977 9.11275L129.72 12.3145C127.773 9.73434 126.108 8.02789 124.724 7.19519C123.34 6.36249 121.827 5.94613 120.185 5.94613C118.097 5.94613 116.385 6.58532 115.048 7.86369C113.711 9.14207 113.042 10.7078 113.042 12.5608C113.042 13.6867 113.277 14.7892 113.746 15.8682C114.215 16.9471 115.083 18.0965 116.35 19.3162C117.03 19.9965 119.282 21.744 123.105 24.5587C127.609 27.8896 130.699 30.6457 132.376 32.8271C134.053 35.0086 134.892 37.4011 134.892 40.0048C134.892 43.8048 133.455 47.1004 130.582 49.8917C127.709 52.683 124.219 54.0787 120.114 54.0786C116.924 54.0786 114.039 53.2342 111.459 51.5454C108.879 49.8565 106.51 47.03 104.352 43.0659ZM176.48 39.9699L180.632 42.1865C179.295 44.884 177.724 47.0537 175.917 48.6957C174.111 50.3376 172.082 51.5866 169.83 52.4427C167.578 53.2987 165.033 53.7268 162.195 53.7269C155.909 53.7269 150.995 51.6686 147.453 47.552C143.911 43.4354 142.14 38.7852 142.14 33.6012C142.14 28.6988 143.641 24.336 146.644 20.5126C150.444 15.6336 155.545 13.1942 161.949 13.1942C168.493 13.1942 173.736 15.6923 177.677 20.6885C180.468 24.2069 181.875 28.5933 181.899 33.8475H147.242C147.336 38.3512 148.767 42.0397 151.535 44.9131C154.302 47.7865 157.715 49.2232 161.773 49.2232C163.744 49.2232 165.655 48.8773 167.508 48.1853C169.361 47.4933 170.939 46.5844 172.241 45.4585C173.543 44.3326 174.956 42.5031 176.48 39.9699ZM176.48 29.5903C175.824 26.9397 174.862 24.8228 173.595 23.2395C172.329 21.6562 170.652 20.3777 168.564 19.4042C166.476 18.4306 164.283 17.9439 161.984 17.944C158.208 17.944 154.959 19.1638 152.238 21.6032C150.268 23.3859 148.778 26.0482 147.77 29.5901L176.48 29.5903ZM190.378 0.176543H195.374V53.6941H190.378V0.176543ZM204.874 0.176543H209.87V53.6941H204.874V0.176543ZM235.977 43.0659L240.411 40.3918C243.53 46.1387 247.131 49.0121 251.212 49.0121C252.971 49.0121 254.625 48.6016 256.173 47.7806C257.721 46.9596 258.894 45.8689 259.692 44.5084C260.489 43.148 260.888 41.6937 260.888 40.1457C260.888 38.4099 260.302 36.6976 259.129 35.0087C257.487 32.6866 254.496 30.3175 250.157 27.9014C245.794 24.6175 243.096 22.2367 242.064 20.759C240.211 18.3195 239.285 15.6572 239.285 12.7721C239.285 10.4968 239.824 8.43263 240.903 6.57957C241.982 4.72651 243.513 3.25461 245.495 2.16385C247.477 1.07309 249.629 0.527735 251.951 0.527773C254.391 0.527773 256.678 1.1435 258.812 2.37496C260.947 3.60643 263.21 5.85235 265.603 9.11275L261.346 12.3145C259.399 9.73434 257.733 8.02789 256.349 7.19519C254.966 6.36249 253.453 5.94613 251.811 5.94613C249.723 5.94613 248.011 6.58532 246.674 7.86369C245.337 9.14207 244.668 10.7078 244.668 12.5608C244.668 13.6867 244.903 14.7892 245.372 15.8682C245.841 16.9471 246.709 18.0965 247.975 19.3162C248.656 19.9965 250.907 21.744 254.731 24.5587C259.234 27.8896 262.325 30.6457 264.002 32.8271C265.679 35.0086 266.518 37.4011 266.518 40.0048C266.518 43.8048 265.081 47.1004 262.208 49.8917C259.334 52.683 255.845 54.0787 251.74 54.0786C248.55 54.0786 245.665 53.2342 243.085 51.5454C240.504 49.8565 238.135 47.03 235.977 43.0659ZM275.56 38.7384V32.5811C275.982 27.3268 277.085 23.48 278.867 21.0405C280.345 18.8121 282.28 17.0412 284.673 15.7276C286.244 14.719 288.484 14.1795 291.393 14.1091C293.27 14.1091 295.17 14.461 297.093 15.1647C299.016 15.8684 300.506 16.8066 301.561 17.9794C302.617 19.1523 303.684 20.9114 304.763 23.257C305.35 21.7558 306.581 19.9965 308.457 17.9793C309.372 17.2052 310.557 16.4429 312.011 15.6923C312.996 15.059 315.283 14.5312 318.872 14.109C321.546 14.109 324.115 14.7775 326.578 16.1145C329.04 17.4515 330.77 19.3339 331.767 21.7617C332.764 24.1895 333.262 27.8076 333.263 32.6162V53.6917H328.196V32.6162C328.196 28.4878 327.903 25.6496 327.316 24.1015C326.73 22.5534 325.721 21.3044 324.29 20.3545C322.859 19.4046 321.135 18.9296 319.118 18.9295C315.318 19.1875 312.07 21.0288 309.372 24.4535C308.317 25.9078 307.519 29.133 306.98 34.1292V53.6919H302.018V33.9181C302.018 29.2737 301.502 26.113 300.47 24.4359C299.438 22.7587 298.207 21.4217 296.776 20.4247C295.345 19.4278 293.562 18.9294 291.428 18.9294C289.129 18.9294 287.153 19.5158 285.499 20.6886C283.845 21.8614 282.549 23.6149 281.611 25.9489C280.673 28.2829 280.298 32.077 280.485 37.3312V53.6919H275.559L275.56 38.7384ZM361.903 13.1938C367.837 13.1938 372.763 15.3401 376.68 19.6326C380.293 23.5498 382.099 28.2059 382.099 33.6009C382.146 46.9242 382.146 53.6913 382.099 53.9024H376.856V45.1416C374.112 50.2551 369.127 53.1168 361.903 53.7267C355.992 53.7267 351.166 51.7153 347.424 47.6925C343.683 43.6697 341.812 38.9726 341.813 33.6012C341.813 28.2531 343.583 23.6087 347.125 19.6681C351.043 15.3521 355.968 13.1938 361.903 13.1938ZM361.903 18.0505C357.798 18.0505 354.268 19.5752 351.312 22.6245C348.357 25.6739 346.879 29.3565 346.879 33.6725C346.879 36.4638 347.635 39.1496 349.148 41.7298C350.661 44.31 353.224 46.4914 356.836 48.2741C365.89 50.2913 372.329 46.1747 376.153 35.9243C376.364 32.6404 376.012 29.4972 375.097 26.4948C374.44 25.1343 373.537 23.8442 372.388 22.6245C369.503 19.5752 366.008 18.0505 361.903 18.0505ZM389.84 36.029V31.3845C390.215 29.0624 390.754 27.1741 391.458 25.7198C393.1 21.6853 395.305 18.7298 398.073 16.8533C400.841 14.9768 403.139 14.0385 404.969 14.0385C406.33 14.0385 407.784 14.4842 409.332 15.3755L406.764 19.5272C404.582 18.7296 402.418 19.3747 400.272 21.4623C398.126 23.5499 396.642 25.8252 395.821 28.288C395.211 30.4695 394.906 34.5626 394.906 40.5675V53.6208H389.839L389.84 36.029ZM427.452 48.2382C425.012 49.5518 422.62 49.6573 420.274 48.5549C417.412 46.3734 416.052 43.2654 416.193 39.2309V22.9051H425.341V18.6479H416.158V0H411.162V40.0751C411.115 42.8899 411.76 45.4701 413.097 47.8157C415.302 51.5453 418.304 53.5156 422.104 53.7267C424.121 53.7971 426.42 53.3397 429 52.3545C428.601 51.3694 428.085 49.9974 427.452 48.2382Z" fill="white"/>
</g>
<defs>
<clipPath id="clip0_114_834">
<rect width="429" height="54.0786" fill="white"/>
</clipPath>
</defs>
</svg>
